<svg width="749" height="835" viewBox="0 0 749 835" fill="none" xmlns="http://www.w3.org/2000/svg">
<path d="M325.655 41.3422C335.469 18.5095 361.476 8.94985 383.742 19.99L401.565 28.827C408.987 32.5071 412.351 41.6602 409.08 49.2711L77.5016 820.641C74.23 828.252 65.5611 831.439 58.1391 827.759L13.4391 805.595C6.01704 801.915 2.65247 792.762 5.92405 785.151L325.655 41.3422Z" fill="#4E2B3F"/>
<path d="M335.505 97.0254C327.221 97.0254 320.505 90.3097 320.505 82.0254V60.4953C320.505 35.6425 340.652 15.4953 365.505 15.4953L869.425 15.4953C877.709 15.4953 884.425 22.2111 884.425 30.4953V82.0254C884.425 90.3097 877.709 97.0254 869.425 97.0254L335.505 97.0254Z" fill="#4E2B3F"/>
<rect width="75.9316" height="678.984" rx="15" transform="matrix(0.999999 0.00115943 -0.000971007 1 468.285 142.421)" fill="#4E2B3F"/>
<rect x="467.983" y="444.111" width="83.8595" height="260.271" rx="15" transform="rotate(-90 467.983 444.111)" fill="#4E2B3F"/>
<rect x="283.613" y="534.94" width="83.8595" height="260.271" rx="15" transform="rotate(-90 283.613 534.94)" fill="#4E2B3F"/>
<rect x="444.121" y="425.474" width="23.8582" height="25.6237" fill="#4E2B3F"/>
<path d="M467.992 425.46C467.992 428.825 467.375 432.157 466.176 435.265C464.977 438.374 463.219 441.199 461.004 443.578C458.788 445.958 456.158 447.845 453.264 449.133C450.369 450.421 447.267 451.083 444.134 451.083L444.134 425.46H467.992Z" fill="#1E1E1C"/>
<rect width="23.862" height="25.6202" transform="matrix(-0.998804 -0.0488985 0.0424046 -0.999101 400.6 122.444)" fill="#4E2B3F"/>
<path d="M376.426 124.326C378.595 119.667 381.801 111.511 382.886 110.346C384.215 107.299 386.006 105.154 388.32 102.885C390.634 100.617 393.342 98.8599 396.288 97.7151C399.234 96.5703 402.453 96.3726 405.706 96.3725L404.405 121.81L376.426 124.326Z" fill="#1E1E1C"/>
<rect x="444.255" y="558.367" width="25.6237" height="23.8582" transform="rotate(-90 444.255 558.367)" fill="#4E2B3F"/>
<path d="M444.134 534.935C447.267 534.935 450.369 535.597 453.264 536.885C456.158 538.173 458.788 540.06 461.004 542.44C463.219 544.819 464.977 547.644 466.176 550.753C467.375 553.861 467.992 557.193 467.992 560.558L444.134 560.558V534.935Z" fill="#1E1E1C"/>
<rect x="543.926" y="469.732" width="25.6237" height="23.8582" transform="rotate(-90 543.926 469.732)" fill="#4E2B3F"/>
<path d="M543.93 469.718C543.942 466.353 544.571 463.024 545.781 459.92C546.991 456.816 548.759 453.999 550.983 451.628C553.206 449.258 555.843 447.382 558.742 446.106C561.642 444.83 564.746 444.18 567.879 444.193L567.788 469.816L543.93 469.718Z" fill="#1E1E1C"/>
<rect x="567.788" y="334.628" width="25.6237" height="23.8582" transform="rotate(90 567.788 334.628)" fill="#4E2B3F"/>
<path d="M567.788 360.252C564.655 360.252 561.553 359.589 558.658 358.301C555.763 357.013 553.133 355.126 550.918 352.747C548.702 350.367 546.945 347.543 545.746 344.434C544.547 341.325 543.93 337.993 543.93 334.628L567.788 334.628L567.788 360.252Z" fill="#1E1E1C"/>
</svg>
